<svg xmlns="http://www.w3.org/2000/svg" viewBox="0 0 512 512">
  <defs>
    <linearGradient id="bg" x1="0%" y1="0%" x2="100%" y2="100%">
      <stop offset="0%" style="stop-color:#3b82f6;stop-opacity:1" />
      <stop offset="100%" style="stop-color:#1d4ed8;stop-opacity:1" />
    </linearGradient>
  </defs>
  <!-- Background -->
  <rect width="512" height="512" rx="96" fill="url(#bg)"/>
  <!-- Book icon -->
  <g transform="translate(96, 96)" fill="white">
    <!-- Open book shape -->
    <path d="M160 48c-44.2 0-80 35.8-80 80v192c0 8.8 7.2 16 16 16h128V48zm0 0c44.2 0 80 35.8 80 80v192c0 8.8-7.2 16-16 16H96" stroke="white" stroke-width="12" fill="none"/>
    <!-- Left page -->
    <rect x="100" y="100" width="40" height="8" rx="4" fill="white" opacity="0.8"/>
    <rect x="100" y="120" width="50" height="8" rx="4" fill="white" opacity="0.8"/>
    <rect x="100" y="140" width="35" height="8" rx="4" fill="white" opacity="0.8"/>
    <!-- Right page -->
    <rect x="180" y="100" width="40" height="8" rx="4" fill="white" opacity="0.8"/>
    <rect x="180" y="120" width="50" height="8" rx="4" fill="white" opacity="0.8"/>
    <rect x="180" y="140" width="35" height="8" rx="4" fill="white" opacity="0.8"/>
    <!-- Timer circle -->
    <circle cx="160" cy="220" r="50" fill="none" stroke="white" stroke-width="8"/>
    <path d="M160 185 L160 220 L185 220" stroke="white" stroke-width="8" stroke-linecap="round" fill="none"/>
  </g>
  <!-- CPA text -->
  <text x="256" y="440" font-family="Arial, sans-serif" font-size="64" font-weight="bold" fill="white" text-anchor="middle">CPA</text>
</svg>
